<?xml version="1.0" encoding="UTF-8"?><svg id="Calque_2" xmlns="http://www.w3.org/2000/svg" viewBox="0 0 486.18 485.91"><g id="Calque_1-2"><g><path d="M349.57,386.19c-1.01,.96-1.72,1.62-2.41,2.29-11.28,10.98-22.58,21.94-33.83,32.95-2.9,2.84-6.43,3.62-10.29,3.62-17.17,0-34.33,0-51.5,0-22.42,0-44.83-.06-67.25,.04-5.13,.02-9.2-1.53-12.91-5.26-10.69-10.74-21.67-21.2-32.55-31.76-.53-.51-1.1-.98-2.21-1.96,0,1.53,0,2.46,0,3.4,0,21.48-.04,42.96,.02,64.44,.02,8.08-1.7,15.48-7.12,21.76-6.43,7.44-14.84,10.12-24.3,10.14-29.58,.05-59.16,.08-88.74,0-12.8-.04-19.55-9.93-15.11-22.01,9.37-25.5,18.83-50.96,28.19-76.46,.56-1.52,.85-3.22,.85-4.84,.04-57.36,.03-114.72,.04-172.08,0-12.42,2.94-24.06,9.72-34.57,8-12.37,19.75-19.29,33.85-22.37,5.08-1.11,10.38-1.44,15.6-1.7,5.47-.28,10.96-.06,16.85-.06,0-1.3,.02-2.34,0-3.38-.25-12.17,.35-24.28,2.55-36.28,5.09-27.77,17.22-52.02,37.1-72.08,16.54-16.69,36.37-28.16,59.08-34.44C221.61,1.04,238.28-1.04,255.35,.5c24.57,2.22,47.29,9.3,66.76,25,22.83,18.43,39.36,41.31,48.85,69.18,5.13,15.04,8.82,30.33,8.94,46.3,.03,3.46-.48,6.93-.76,10.76,1.21,0,2.27-.04,3.32,0,8.89,.36,17.85,.14,26.66,1.21,21.31,2.59,39.7,19.65,44.16,40.68,1.2,5.64,1.66,11.54,1.67,17.32,.12,56.94,.06,113.89,.12,170.83,0,2.18,.44,4.47,1.21,6.51,9.42,25.21,18.69,50.49,28.56,75.52,3.94,9.99-.72,22.16-15.37,22.07-21.16-.13-42.33,0-63.5-.05-9.74-.02-19.5,.08-29.23-.39-14.59-.7-26.29-12.38-26.72-27-.45-15.55-.22-31.13-.26-46.7-.02-7.74,0-15.48-.01-23.23,0-.63-.1-1.27-.19-2.36Zm-106.85-204.24c-34.41,0-68.83,.02-103.24-.04-2.07,0-2.9,.37-2.9,2.7,.07,51.95,.04,103.89,.12,155.84,0,1.23,.67,2.76,1.55,3.64,16.32,16.42,32.7,32.79,49.15,49.08,.92,.91,2.57,1.56,3.87,1.56,34.66,.08,69.33,.08,103.99,0,1.24,0,2.8-.62,3.66-1.49,16-16.15,31.91-32.4,47.89-48.57,1.46-1.48,2.08-2.93,2.08-5.02-.06-51.45-.04-102.9-.04-154.34q0-3.38-3.39-3.38c-34.25,0-68.5,0-102.74,0Zm0-30.2c12.33,0,24.66,0,37,0,22.16,0,44.33,0,66.49,.01,1.53,0,2.69,.03,2.68-2.14-.04-10.65-.05-21.29-1.82-31.86-4.83-28.92-19.41-51.82-43.27-68.56-23.49-16.48-49.77-22-78.08-17.54-18.04,2.85-34.22,10.06-48.46,21.54-18.08,14.57-30.91,32.6-36.85,55.27-3.43,13.1-3.96,26.44-3.79,39.86,.05,3.41,.01,3.41,3.36,3.41,34.25,0,68.49,0,102.74,0Zm206.72,303.72c-.33-1.01-.56-1.8-.84-2.56-7.07-19.43-14.19-38.85-21.15-58.32-.98-2.75-1.54-5.81-1.55-8.72-.11-32.04-.07-64.09-.07-96.13,0-26.63,.04-53.27-.02-79.9-.04-16.32-9.68-26.77-25.78-27.76-6.31-.39-12.66-.09-18.99-.09-.31,0-.61,.19-1.05,.34-.33,91.03-.66,182.03-.99,273.14h70.43Zm-343.16,.02V182.28c-7.67,0-15.15-.16-22.62,.06-4.4,.13-8.4,1.88-12.01,4.44-8.06,5.7-11.11,13.71-11.1,23.29,.03,58.6,.04,117.2-.05,175.8,0,2.92-.56,5.97-1.54,8.72-6.95,19.48-14.09,38.89-21.16,58.33-.29,.8-.53,1.62-.84,2.58H106.28Z"/><path d="M242.32,273.26c14.74,0,29.48-.04,44.22,.02,5.05,.02,9.82,1.03,13.11,5.38,3.68,4.86,4.09,10.24,2.05,15.82-1.9,5.22-6.07,7.73-11.3,8.65-1.79,.32-3.64,.41-5.46,.41-28.73,.02-57.47,.02-86.2,.01-9.63,0-15.29-4.4-16.86-13.84-1.18-7.13,3.06-13.69,9.34-15.4,2.3-.63,4.74-.99,7.12-1.01,14.66-.09,29.32-.05,43.97-.05Z"/><path d="M242.29,242.72c-14.74,0-29.48,.02-44.22,0-8.12-.02-13.38-3.84-15.69-11.31-2.7-8.73,2.49-17.09,11.55-18.49,1.8-.28,3.64-.42,5.46-.42,28.73-.03,57.46-.03,86.19,0,3.77,0,7.51,.4,10.79,2.5,4.97,3.18,7.39,9.34,6.18,15.46-1.31,6.63-5.16,10.59-11.59,11.74-1.87,.34-3.8,.5-5.7,.5-14.32,.04-28.65,.02-42.97,.02Z"/><path d="M242.1,90.92c.07,17.57-12.42,30.33-30.17,30.19-16.05-.13-30.42-10.81-30.42-30.08,0-17.66,12.7-30.46,30.31-30.51,17.68-.05,30.2,12.52,30.27,30.41Z"/><path d="M272.87,105.67c.72-9.97,6.51-14.55,15.08-14.48,9.13,.07,14.98,5.2,14.84,15.14-.13,10.06-6.49,14.55-15.12,14.71-8.81,.17-15.07-6.72-14.81-15.37Z"/></g></g></svg>